<?xml version="1.0" standalone="no"?>
<!DOCTYPE svg PUBLIC "-//W3C//DTD SVG 20010904//EN"
 "http://www.w3.org/TR/2001/REC-SVG-20010904/DTD/svg10.dtd">
<svg version="1.0" xmlns="http://www.w3.org/2000/svg"
 width="922.000000pt" height="525.000000pt" viewBox="0 0 922.000000 525.000000"
 preserveAspectRatio="xMidYMid meet">
<metadata>
Created by potrace 1.16, written by Peter Selinger 2001-2019
</metadata>
<g transform="translate(0.000000,525.000000) scale(0.100000,-0.100000)"
fill="#000000" stroke="none">
<path d="M1786 4495 c-9 -9 -16 -22 -16 -29 0 -13 180 -193 370 -371 52 -49
154 -146 225 -215 251 -243 202 -214 425 -245 580 -79 696 -95 708 -95 6 0 12
-5 12 -11 0 -25 -153 -336 -175 -354 -46 -40 -80 -108 -76 -153 1 -13 81 -52
107 -52 19 0 53 75 64 143 7 46 144 359 172 394 7 9 32 10 88 6 72 -5 78 -4
84 14 4 11 4 27 1 35 -8 19 -810 780 -833 790 -17 8 -177 30 -782 108 -168 22
-317 43 -331 46 -17 3 -32 -1 -43 -11z"/>
<path d="M2013 4073 c-3 -10 -28 -67 -56 -128 -71 -159 -79 -184 -72 -225 37
-195 327 -435 677 -558 222 -79 470 -83 562 -11 14 11 47 64 72 117 25 53 59
123 74 155 20 40 25 59 17 62 -7 2 -136 20 -287 39 -151 20 -313 41 -360 48
-85 12 -85 12 -346 265 -144 139 -265 253 -268 253 -4 0 -9 -8 -13 -17z"/>
<path d="M781 3759 c-24 -4 -59 -20 -77 -34 -33 -25 -91 -121 -80 -132 3 -3
44 -5 91 -4 70 2 95 -2 130 -19 71 -34 96 -120 55 -187 -29 -48 -55 -58 -170
-63 -105 -5 -105 -5 -108 -77 -3 -73 -3 -73 93 -73 63 0 105 -5 123 -14 96
-50 109 -169 26 -235 -23 -18 -40 -21 -135 -21 -109 0 -109 0 -109 -75 0 -75
0 -75 101 -75 86 0 107 -3 136 -21 62 -39 82 -123 43 -186 -31 -51 -65 -63
-180 -63 -100 0 -100 0 -100 -75 0 -75 0 -75 103 -75 84 0 108 -4 134 -20 75
-45 84 -144 19 -209 -36 -36 -36 -36 -146 -39 -110 -4 -110 -4 -110 -78 0 -74
0 -74 109 -74 103 0 111 -2 140 -26 59 -49 66 -147 13 -196 -44 -42 -66 -48
-167 -48 -96 0 -96 0 -93 -71 3 -72 3 -72 93 -70 105 2 146 -13 183 -69 19
-28 23 -44 19 -83 -8 -91 -70 -129 -206 -126 -86 2 -86 2 -86 -237 0 -239 0
-239 28 -296 16 -32 48 -75 73 -97 86 -76 12 -71 1224 -69 1085 3 1085 3 1098
30 13 29 4 63 -22 80 -6 4 -488 8 -1071 8 -1007 0 -1062 1 -1100 19 -143 64
-147 268 -8 337 36 18 84 19 1105 24 936 4 1069 7 1082 20 14 14 16 133 16
995 0 980 0 980 -22 977 -13 -2 -68 -4 -123 -4 -228 -1 -509 95 -759 259 -39
25 -119 94 -177 152 -117 117 -163 193 -177 291 -7 55 -7 55 -487 56 -264 1
-500 -2 -524 -7z"/>
<path d="M415 3505 c-32 -31 -32 -66 -1 -102 24 -28 24 -28 173 -31 81 -2 167
-1 191 3 78 12 108 80 57 130 -24 25 -26 25 -210 25 -184 0 -186 0 -210 -25z"/>
<path d="M423 3095 c-49 -34 -35 -118 22 -134 18 -5 111 -6 206 -3 150 4 174
7 191 24 26 26 23 74 -7 103 -24 25 -26 25 -207 25 -146 0 -188 -3 -205 -15z"/>
<path d="M3520 2645 c0 -85 0 -85 168 -87 167 -3 167 -3 169 -463 2 -460 2
-460 103 -463 100 -3 100 -3 100 462 0 466 0 466 167 468 167 3 167 3 167 83
0 80 0 80 -437 83 -437 2 -437 2 -437 -83z"/>
<path d="M7467 2724 c-4 -4 -7 -252 -7 -551 0 -544 0 -544 100 -541 101 3 101
3 101 548 0 545 0 545 -94 548 -51 1 -96 0 -100 -4z"/>
<path d="M8175 2718 c-24 -72 -70 -201 -159 -453 -59 -165 -130 -363 -157
-440 -27 -77 -54 -150 -60 -162 -6 -11 -9 -25 -6 -30 3 -4 52 -7 109 -5 104 3
104 3 146 132 26 76 49 131 58 134 20 7 362 8 389 0 16 -4 31 -35 65 -134 45
-129 45 -129 148 -132 57 -2 109 0 114 3 7 4 6 14 -2 29 -18 34 -120 309 -322
873 -71 197 -71 197 -195 197 -90 0 -125 -3 -128 -12z m210 -446 c36 -104 65
-194 65 -201 0 -15 -276 -16 -285 -1 -5 9 78 270 125 395 15 40 16 39 95 -193z"/>
<path d="M413 2664 c-20 -20 -24 -31 -19 -57 12 -63 27 -67 236 -67 189 0 189
0 209 26 12 15 21 37 21 49 0 12 -9 34 -21 49 -20 26 -20 26 -210 26 -190 0
-190 0 -216 -26z"/>
<path d="M5428 2571 c6 -113 -1 -124 -72 -119 -49 3 -49 3 -50 -75 -1 -77 -1
-77 55 -77 43 0 58 -4 63 -16 3 -9 6 -120 6 -247 0 -138 5 -248 11 -272 16
-59 83 -119 149 -135 57 -14 196 -8 212 8 6 6 6 31 -2 68 -19 97 -14 91 -73
86 -42 -3 -57 0 -77 16 -25 20 -25 20 -28 233 -2 117 -1 223 3 236 5 20 12 22
87 25 81 3 81 3 81 78 0 75 0 75 -72 71 -99 -4 -104 0 -99 113 3 91 3 91 -98
94 -102 3 -102 3 -96 -87z"/>
<path d="M6210 2457 c-192 -45 -302 -194 -303 -412 0 -239 124 -398 330 -424
222 -28 398 90 442 297 42 197 -26 403 -159 487 -81 51 -215 74 -310 52z m185
-177 c17 -11 45 -43 61 -72 27 -50 29 -60 29 -168 0 -93 -4 -122 -19 -150 -42
-79 -94 -113 -173 -113 -117 0 -187 95 -188 253 0 104 17 168 59 215 56 65
157 80 231 35z"/>
<path d="M7210 2461 c-56 -12 -94 -36 -125 -81 -23 -34 -30 -38 -37 -25 -5 8
-8 34 -6 56 3 41 3 41 -90 41 -93 1 -93 1 -95 -411 -2 -411 -2 -411 95 -411
97 0 97 0 100 263 3 258 3 263 28 306 34 61 79 86 155 85 33 0 67 -2 75 -4 12
-4 15 11 18 86 3 88 2 92 -20 98 -27 7 -51 6 -98 -3z"/>
<path d="M4455 2451 c-2 -2 -2 -137 1 -300 4 -219 10 -310 21 -351 51 -187
321 -243 462 -96 19 20 39 36 44 36 5 0 7 -24 6 -52 -3 -53 -3 -53 94 -56 97
-3 97 -3 95 409 -3 412 -3 412 -98 412 -95 0 -95 0 -100 -269 -5 -289 -7 -300
-62 -351 -71 -67 -191 -54 -240 26 -24 37 -25 54 -28 591 0 6 -190 7 -195 1z"/>
<path d="M411 2244 c-28 -35 -26 -69 4 -99 24 -25 26 -25 210 -25 184 0 186 0
210 25 30 30 32 64 4 99 -20 26 -20 26 -214 26 -194 0 -194 0 -214 -26z"/>
<path d="M453 1853 c-36 -7 -66 -52 -59 -88 12 -60 28 -65 233 -65 182 0 184
0 208 25 32 31 32 66 1 102 -24 28 -24 28 -193 29 -92 1 -178 0 -190 -3z"/>
<path d="M433 1428 c-34 -16 -48 -69 -29 -106 8 -16 23 -32 31 -36 9 -3 97 -6
196 -6 178 0 180 0 204 25 16 15 25 36 25 55 0 19 -9 40 -25 55 -24 25 -26 25
-202 24 -105 0 -187 -5 -200 -11z"/>
<path d="M962 874 c-14 -10 -22 -26 -22 -44 0 -63 -51 -60 987 -60 930 0 943
0 963 20 11 11 20 29 20 40 0 11 -9 29 -20 40 -20 20 -33 20 -963 20 -837 0
-945 -2 -965 -16z"/>
</g>
</svg>
